<svg style="position: absolute; width: 0; height: 0; overflow: hidden;" version="1.1" xmlns="http://www.w3.org/2000/svg" xmlns:xlink="http://www.w3.org/1999/xlink">
<defs>
<symbol id="icon-icon" viewBox="0 0 32 32">
<title>icon</title>
<path class="path1" fill="#630" d="M30.336 17.664l-1.344-3.968c0-0.032-0.032-0.096-0.064-0.128 0 0 0 0 0-0.032-0.032-0.064-0.064-0.096-0.096-0.16 0 0-0.032-0.032-0.032-0.032-0.032-0.032-0.064-0.064-0.128-0.096 0 0 0 0-0.032-0.032l-12.48-7.392c-0.256-0.16-0.576-0.16-0.832 0l-11.552 7.072c0 0 0 0-0.032 0.032s-0.096 0.064-0.128 0.096c0 0-0.032 0.032-0.032 0.032-0.032 0.032-0.064 0.064-0.096 0.096 0 0-0.032 0.032-0.032 0.032s0 0 0 0.032l-1.76 3.616c-0.192 0.384-0.032 0.832 0.32 1.056l14.816 8.32c0.128 0.064 0.256 0.096 0.384 0.096 0.16 0 0.288-0.032 0.416-0.128l12.32-7.552c0.352-0.224 0.512-0.608 0.384-0.96zM15.744 7.456l10.944 6.528-9.664 5.952-11.264-6.368 9.984-6.112zM17.248 24.544l-13.76-7.712 1.056-2.144 12.096 6.88c0.128 0.064 0.256 0.096 0.384 0.096 0.16 0 0.288-0.032 0.416-0.128l10.336-6.368 0.8 2.4-11.328 6.976z"></path>
<path class="path2" fill="#630" d="M14.368 11.84l1.6-1.024 1.696 1.152c0.128 0.096 0.288 0.128 0.448 0.128 0.256 0 0.512-0.128 0.672-0.352 0.256-0.352 0.16-0.864-0.224-1.12l-2.112-1.44c-0.256-0.192-0.608-0.192-0.864 0l-2.048 1.28c-0.384 0.224-0.48 0.736-0.256 1.088 0.224 0.416 0.736 0.512 1.088 0.288z"></path>
<path class="path3" fill="#630" d="M18.528 17.6c0.256 0 0.512-0.128 0.672-0.352 0.256-0.352 0.16-0.864-0.224-1.12l-2.112-1.408c-0.256-0.16-0.608-0.192-0.864 0l-1.984 1.248c-0.384 0.224-0.48 0.736-0.256 1.088 0.224 0.384 0.736 0.48 1.088 0.256l1.568-0.96 1.696 1.152c0.128 0.064 0.256 0.096 0.416 0.096z"></path>
<path class="path4" fill="#630" d="M17.888 14.4c0.256 0.352 0.736 0.448 1.12 0.192l1.472-1.024 1.664 1.12c0.128 0.096 0.288 0.128 0.448 0.128 0.256 0 0.512-0.128 0.672-0.352 0.256-0.352 0.16-0.864-0.224-1.12l-2.112-1.44c-0.288-0.192-0.64-0.192-0.896 0l-1.92 1.344c-0.384 0.288-0.48 0.8-0.224 1.152z"></path>
<path class="path5" fill="#630" d="M14.624 14.496c0.256-0.352 0.16-0.864-0.224-1.12l-2.112-1.44c-0.256-0.16-0.608-0.192-0.864 0l-2.048 1.28c-0.384 0.224-0.48 0.736-0.256 1.088 0.224 0.384 0.736 0.48 1.088 0.256l1.6-0.992 1.696 1.152c0.128 0.096 0.288 0.128 0.448 0.128 0.256 0 0.512-0.128 0.672-0.352z"></path>
</symbol>
</defs>
</svg>
